<?xml version="1.0" encoding="UTF-8"?>
<svg xmlns="http://www.w3.org/2000/svg" width="300px" height="200px" id="Layer_1" viewBox="0 0 150 100">
  <style>.st0{fill:#FBB034;}</style>
  <path class="st0" d="M141.9 14.5c-2.4 19.6-5 43-14.7 58.8-5.9 9.5-12.8 4.2-17.4-3.6 2-7.7 2.7-16.3 3.3-23.4 1-11.7 1.6-31-7.8-37.4-1.7-1.1-6.1-1.7-6.7 1.8-3.4 18.3-5.3 38.7.8 56.3.4 1.3 1 2.5 1.6 3.8-3 9.2-9.2 17.6-17 11.4-.4-.3-.8-.7-1.1-1 1.9-4.5 3.3-9.4 4.5-13.9 4-15.7 8.8-45 .1-59.5-3.7-6.3-11.5-4.5-15 1-5.8 9.2-4.8 26.9-4.5 38 .2 10.3.1 23.7 4.7 32.6.4.8.8 1.5 1.3 2.2-5.2 10-11.9 9.7-19.4.1-.3-.4-.7-.9-1-1.4 2.9-8.3 4.1-18.2 4.8-26.6 1.2-14.5 1.1-33.3-5.9-45.4-2.7-4.3-8.2-8-12.3-5.5-5.4 3.2-6.3 10.9-7.1 18-2.4 21.5 1.1 43.6 11.4 60.2-3.6 8.1-9 12.2-16.8 2.9C16.8 71 9.9 47 8.1 28c-.5-4.8-8.5-4.4-8.1.3 1.8 18.6 7.8 37.2 16 52.3 6.1 11.2 18.3 22.2 28.7 13.6 1.9-1.6 3.6-3.6 5-5.9C56 95.7 64.3 99.8 72.4 95c2.7-1.6 5-4.1 6.9-7.1 6.7 5.2 15.2 4.8 22.2-1.9 2-1.9 3.6-4.4 5-7.1 5.3 5.6 12.2 8.6 18.7 5.9 18.9-7.7 22.2-48.9 24.8-70.6.5-4.5-7.5-4.5-8.1.3zm-101 29.3c-.2-1.9 1-35 2.2-34.2 10.2 7 7.7 37.3 6.5 49.1-.4 3.6-1 7.9-2 12-3.5-8.1-5.7-17.3-6.7-26.9zm38.5-31.6c1.4-2.8 2.5 3.3 3 5.4 1.3 5.9 1.1 12.6 1 18.7-.3 11.7-2 23.6-5.4 34.6-.7-3.5-1-7.1-1.3-10.5-1.2-13.9-3.4-36 2.7-48.2zm25.3 10.2c2.3 8.7 1.2 21.6-.4 32-1.8-10.2-1.1-21.5.4-32z"></path>
</svg>
