<?xml version="1.0" encoding="UTF-8"?>
<svg xmlns="http://www.w3.org/2000/svg" width="300px" height="141px" viewBox="0 0 445 209">
  <g fill="none" fill-rule="evenodd">
    <path d="M249.169 18.395c2.111 7.851 1.106 19.511-.368 28.92-1.602-9.196-.97-19.44.368-28.92zm-22.827-9.168c1.298-2.569 2.298 2.97 2.707 4.868 1.137 5.36 1.024 11.364.869 16.868-.294 10.54-1.836 21.337-4.843 31.195-.654-3.117-.941-6.438-1.202-9.508-1.057-12.412-3.094-32.414 2.469-43.423zm-34.731 28.5c-.181-1.737.876-31.633 2.021-30.849 9.207 6.284 6.953 33.648 5.88 44.299a90.51 90.51 0 0 1-1.765 10.856c-3.323-7.315-5.248-15.64-6.136-24.306zm77.818 26.648c-5.285 8.576-11.565 3.824-15.743-3.29 1.768-6.985 2.472-14.743 3.022-21.124.912-10.603 1.481-28.028-7.033-33.739-1.545-1.029-5.484-1.569-6.079 1.617-3.087 16.492-4.76 34.937.722 50.847a31.014 31.014 0 0 0 1.411 3.404c-2.631 8.393-8.173 15.936-15.288 10.338a11.03 11.03 0 0 1-1.037-.94c1.719-4.047 3.011-8.455 4.035-12.525 3.58-14.175 7.911-40.6.093-53.678-3.374-5.652-10.42-4.043-13.554.92-5.251 8.314-4.303 24.326-4.07 34.309.216 9.318.119 21.431 4.251 29.464a27.46 27.46 0 0 0 1.154 2.031c-4.732 9.03-10.782 8.733-17.55.079-.316-.404-.616-.82-.918-1.234 2.636-7.51 3.71-16.41 4.349-24.008 1.1-13.053.96-30.045-5.292-40.992-2.278-3.991-7.269-7.349-11-5.116-4.831 2.894-5.668 9.879-6.38 16.259-2.162 19.405 1.046 39.332 10.26 54.38-3.238 7.293-8.161 10.971-15.144 2.644-9.827-11.716-16.015-33.335-17.673-50.487-.424-4.375-7.708-3.971-7.3.236 1.625 16.824 7.045 33.592 14.47 47.249 5.524 10.155 16.531 20.074 25.898 12.288 1.736-1.443 3.211-3.244 4.48-5.289 5.667 6.623 13.222 10.29 20.477 5.978 2.45-1.457 4.499-3.715 6.24-6.415 6.07 4.721 13.751 4.321 20.035-1.678 1.809-1.729 3.271-3.946 4.482-6.454 4.772 5.086 11.024 7.733 16.86 5.349 17.044-6.961 19.998-44.156 22.432-63.721.505-4.07-6.756-4.127-7.301.236-2.202 17.709-4.51 38.795-13.309 53.062z" fill="orange"></path>
    <g fill="#9E9F9E">
      <path d="M30.249 115.78h27.085v4.95H35.198V209h-4.949v-93.22zM27.086 209h-4.95v-88.27H0v-4.95h27.086V209zm0-96.382H0v-4.95h57.334v4.95H27.086zM76.888 107.668v74.382c0 3.485.342 6.187 1.03 8.112.687 1.926 1.534 3.327 2.544 4.195 1.007.868 2.061 1.373 3.162 1.509 1.099.141 2.108.208 3.024.208.915 0 1.925-.067 3.026-.208 1.099-.136 2.152-.641 3.163-1.509 1.007-.868 1.855-2.269 2.541-4.195.689-1.925 1.033-4.627 1.033-8.112v-74.382h4.811v74.382c0 6.51-1.237 11.322-3.712 14.436-2.292 2.936-5.912 4.4-10.862 4.4-4.86 0-8.48-1.464-10.861-4.4-2.476-3.114-3.712-7.926-3.712-14.436v-74.382h4.813zm32.446 0v74.382c0 8.437-1.833 14.897-5.5 19.388-1.375 1.834-3.436 3.554-6.186 5.155-2.75 1.606-6.417 2.407-11 2.407s-8.25-.801-10.999-2.407c-2.75-1.601-4.812-3.321-6.187-5.155-3.666-4.491-5.5-10.951-5.5-19.388v-74.382h4.811v74.382c0 7.244 1.514 12.695 4.538 16.361 3.026 3.852 7.471 5.777 13.337 5.777 5.958 0 10.403-1.925 13.337-5.777 3.025-3.666 4.537-9.117 4.537-16.361v-74.382h4.812zM161.581 107.393h4.949v101.33h-11L130.783 147.4v61.323h-4.813v-86.481l32.861 81.533h2.75v-96.382zm-36.024 4.949h-2.888v96.381h-4.811v-101.33h10.862l24.749 61.318v-61.318h4.949v86.479l-32.861-81.53zM209.798 142.729v-6.464c0-3.663-.322-6.529-.963-8.59-.642-2.063-1.49-3.623-2.544-4.678-1.054-1.052-2.247-1.716-3.574-1.993a20.058 20.058 0 0 0-8.111 0c-1.331.277-2.524.941-3.577 1.993-1.054 1.055-1.903 2.615-2.543 4.678-.641 2.061-.961 4.927-.961 8.59v43.726c0 4.035.388 7.125 1.168 9.279.777 2.153 1.763 3.714 2.957 4.675 1.188.96 2.406 1.536 3.642 1.716 1.237.188 2.36.277 3.369.277 1.008 0 2.152-.089 3.438-.277 1.281-.18 2.496-.756 3.642-1.716 1.145-.961 2.108-2.522 2.889-4.675.776-2.154 1.168-5.244 1.168-9.279v-7.701h-15.675v-4.812h20.625v12.513c0 7.237-1.375 12.51-4.125 15.811-2.476 3.299-6.463 4.948-11.962 4.948-5.41 0-9.35-1.649-11.825-4.948-2.75-3.301-4.125-8.574-4.125-15.811v-43.726c0-7.149 1.375-12.374 4.125-15.674 2.566-3.3 6.507-4.949 11.825-4.949 5.315 0 9.302 1.649 11.962 4.949 2.75 3.3 4.125 8.525 4.125 15.674v6.464h-4.95zm8.25 0v-6.464c0-7.79-1.606-13.7-4.813-17.735-3.211-4.033-8.068-6.05-14.574-6.05-6.417 0-11.23 2.017-14.436 6.05-3.21 4.035-4.814 9.945-4.814 17.735v43.726c0 7.882 1.604 13.842 4.814 17.869 3.3 4.126 8.111 6.188 14.436 6.188 6.414 0 11.274-2.062 14.574-6.188 3.207-4.027 4.813-9.987 4.813-17.869v-15.814h-23.925v-4.812h28.736v20.626c0 9.069-1.971 16.04-5.911 20.895-1.468 1.836-3.646 3.626-6.532 5.364-2.887 1.744-6.807 2.609-11.755 2.609-4.95 0-8.847-.865-11.686-2.609-2.843-1.738-4.998-3.528-6.463-5.364-3.943-4.855-5.912-11.826-5.912-20.895v-43.726c0-8.981 1.969-15.901 5.912-20.761 4.125-5.314 10.174-7.973 18.149-7.973 8.065 0 14.161 2.659 18.287 7.973 3.94 4.86 5.911 11.78 5.911 20.761v6.464h-4.811zM269.894 160.737c5.684 5.229 8.527 11.965 8.527 20.215 0 7.789-1.927 14.254-5.777 19.386-4.492 5.774-10.635 8.662-18.425 8.662-8.065 0-14.158-2.615-18.285-7.837-3.942-4.857-5.913-11.825-5.913-20.9v-6.459h4.814v6.459c0 7.885 1.602 13.842 4.812 17.877 3.3 4.035 8.16 6.048 14.572 6.048 3.027 0 5.776-.573 8.254-1.717 2.474-1.145 4.536-2.867 6.184-5.156 1.557-2.016 2.75-4.424 3.575-7.221.825-2.794 1.24-5.844 1.24-9.142 0-3.939-.688-7.266-2.065-9.967-1.377-2.706-3.002-4.928-4.884-6.669-1.877-1.742-3.802-3.098-5.772-4.058-1.969-.961-3.554-1.673-4.743-2.13l-2.197-.96c-1.29-.554-2.823-1.285-4.612-2.202-1.784-.917-3.502-2.177-5.154-3.783-1.65-1.601-3.047-3.575-4.192-5.912-1.146-2.338-1.719-5.2-1.719-8.59 0-2.386.275-4.815.825-7.289.55-2.476 1.464-4.72 2.747-6.737a15.744 15.744 0 0 1 5.021-4.95c2.065-1.282 4.562-1.925 7.492-1.925 5.316 0 9.302 1.649 11.965 4.95 2.75 3.484 4.127 8.802 4.127 15.951v6.46h-4.957v-6.46c0-3.942-.387-7.013-1.168-9.214-.776-2.2-1.761-3.781-2.955-4.744-1.191-.962-2.429-1.533-3.71-1.719-1.284-.182-2.384-.274-3.302-.274-2.658 0-4.719.642-6.189 1.925a12.946 12.946 0 0 0-3.365 4.606c-.78 1.787-1.261 3.576-1.445 5.361-.184 1.785-.273 3.142-.273 4.059 0 2.381.364 4.419 1.098 6.116.735 1.697 1.696 3.162 2.89 4.399a18.224 18.224 0 0 0 4.053 3.162 34.514 34.514 0 0 0 4.744 2.271l2.202.96a183.74 183.74 0 0 1 5.292 2.41c2.246 1.052 4.465 2.634 6.668 4.738zm-31.622-3.71c-5.499-5.311-8.251-12.1-8.251-20.346 0-4.307.574-8.254 1.72-11.826 1.146-3.574 2.795-6.621 4.95-9.144a23.088 23.088 0 0 1 7.697-5.912c2.979-1.42 6.26-2.131 9.831-2.131 4.951 0 8.871.871 11.761 2.613 2.882 1.741 5.059 3.528 6.528 5.361 3.938 5.042 5.913 12.057 5.913 21.039v6.46h-4.949v-6.46c0-8.07-1.609-14.026-4.815-17.877-3.21-4.125-8.021-6.186-14.438-6.186-6.233 0-11.087 2.384-14.572 7.149-3.21 4.309-4.812 9.949-4.812 16.914 0 3.939.663 7.285 1.993 10.035 1.327 2.75 2.934 5.015 4.815 6.804 1.874 1.789 3.826 3.187 5.843 4.196 2.014 1.007 3.662 1.789 4.949 2.338l2.336 1.1c1.189.456 2.658 1.097 4.399 1.921 1.741.825 3.44 1.993 5.089 3.507 1.648 1.513 3.07 3.438 4.259 5.776 1.193 2.337 1.793 5.203 1.793 8.594 0 6.324-1.426 11.228-4.268 14.709-2.842 3.488-6.78 5.225-11.824 5.225-5.408 0-9.394-1.602-11.96-4.812-2.75-3.386-4.125-8.662-4.125-15.811v-6.459h4.813v6.459c0 5.96 1.053 10.224 3.162 12.786.457.643 1.282 1.308 2.475 1.994 1.193.687 3.069 1.031 5.635 1.031 2.473 0 4.448-.528 5.917-1.581 1.464-1.054 2.585-2.338 3.365-3.846.781-1.513 1.286-3.163 1.514-4.952.227-1.789.339-3.367.339-4.743 0-2.386-.364-4.404-1.095-6.053-.738-1.649-1.698-3.042-2.89-4.19a17.567 17.567 0 0 0-3.988-2.887 65.497 65.497 0 0 0-4.394-2.133l-2.479-1.101c-1.469-.64-3.325-1.534-5.568-2.682-2.249-1.144-4.469-2.769-6.668-4.879zM312.9 115.78h27.087v4.95h-22.135V209H312.9v-93.22zM309.738 209h-4.947v-88.27h-22.136v-4.95h27.083V209zm0-96.382h-27.083v-4.95h57.332v4.95h-30.249zM388.55 164.865h-29.009v31.209h29.009v4.812h-33.825v-40.973h33.825v4.952zm0-44.135h-29.009v31.074h29.009v4.947h-33.825V115.78h33.825v4.95zm-37.128 83.458h37.128V209h-41.939V107.668h41.939v4.95h-37.128v91.57zM439.765 107.393h4.948v101.33h-11.001L408.967 147.4v61.323h-4.812v-86.481l32.86 81.533h2.75v-96.382zm-36.026 4.949h-2.885v96.381h-4.813v-101.33h10.861l24.753 61.318v-61.318h4.947v86.479l-32.863-81.53z"></path>
    </g>
  </g>
</svg>
