<svg id="Layer_1" data-name="Layer 1" xmlns="http://www.w3.org/2000/svg" viewBox="0 0 476.39 77.76"><defs><style>.cls-1{fill:currentColor;}</style></defs><title>tungsten-logo(web-rev)</title><path class="cls-1" d="M49.82,217.42a113.21,113.21,0,0,0,12.87,42c4.92,9,14.71,17.86,23,10.93,7.86-6.54,9.87-21.13,10.82-32.44,1-11.62.85-26.73-4.71-36.47-2-3.56-6.47-6.54-9.79-4.56-4.3,2.58-5,8.79-5.67,14.47-2.17,19.44,1.7,39.49,12.47,53.24,5.12,6.55,12.25,10.43,19.08,6.37,6.47-3.84,9.85-13.87,12-22.27,3.18-12.61,7-36.13.08-47.76-3-5-9.27-3.6-12.06.82-4.67,7.4-3.83,21.64-3.62,30.52.19,8.3.11,19.07,3.78,26.22,5.41,10.52,15.51,12.64,23.23,5.27,7-6.72,8.39-21.46,9.29-32,.81-9.43,1.32-24.94-6.25-30-1.38-.91-4.88-1.39-5.41,1.44-2.75,14.68-4.24,31.09.64,45.24,3.41,9.89,12.53,17.69,20.72,14.34,15.17-6.2,17.79-39.29,20-56.7.45-3.62-6-3.67-6.5.21-2,15.76-4,34.52-11.84,47.21-6.51,10.57-14.72-1.6-17.31-10.6-3.39-11.82-1.6-26.51.62-38.39L129.83,206c9,6,3.92,33.35,1.73,42.88-1.91,8.38-7.24,17.42-14.32,11.85-4.65-3.65-5.3-11.23-5.84-17.6-.94-11-2.75-28.84,2.2-38.63,1.15-2.29,2,2.64,2.4,4.33,1,4.77.91,10.11.78,15-.32,11.35-2.23,23.07-6.17,33.2-4.39,11.31-10.35,12-17.1,3.39-6.41-8.18-9.64-19-10.82-30.58-.16-1.54.78-28.14,1.8-27.44,8.19,5.59,6.19,29.93,5.23,39.41-1.24,12.35-6.48,33.68-17.68,20.33-8.74-10.43-14.25-29.66-15.72-44.92-.38-3.9-6.86-3.54-6.5.21Z" transform="translate(-49.81 -195.12)"/><path class="cls-1" d="M212.41,199.05H192.05v-3.72h43.08v3.72H212.41Zm0,72.41h-3.72V205.14H192.05v-3.72h20.36Zm2.37-70h20.35v3.72H218.5v66.32h-3.72v-70Z" transform="translate(-49.81 -195.12)"/><path class="cls-1" d="M274.2,195.33v55.88q0,9.51-4.13,14.57a15.22,15.22,0,0,1-4.65,3.87,19.78,19.78,0,0,1-16.53,0,15.29,15.29,0,0,1-4.64-3.87q-4.14-5.05-4.14-14.57V195.33h3.62v55.88c0,5.45,1.14,9.54,3.41,12.3s5.61,4.34,10,4.34,7.82-1.45,10-4.34,3.41-6.85,3.41-12.3V195.33Zm-24.38,0v55.88a18.77,18.77,0,0,0,.78,6.1,7.32,7.32,0,0,0,1.91,3.15,4.48,4.48,0,0,0,2.38,1.13,16.18,16.18,0,0,0,4.54,0,4.48,4.48,0,0,0,2.38-1.13,7.32,7.32,0,0,0,1.91-3.15,18.81,18.81,0,0,0,.77-6.1V195.33h3.62v55.88q0,7.35-2.79,10.85-2.58,3.31-8.16,3.31T249,262.06q-2.79-3.51-2.79-10.85V195.33Z" transform="translate(-49.81 -195.12)"/><path class="cls-1" d="M286.39,198.84h-2.17v72.42h-3.61V195.12h8.16l18.59,46.07V195.12h3.72v65Zm27.07-3.72h3.72v76.14h-8.27l-18.59-46.08v46.08H286.7v-65l24.69,61.26h2.07Z" transform="translate(-49.81 -195.12)"/><path class="cls-1" d="M355.89,221.67v-4.86q0-8.77-3.62-13.32t-10.95-4.55q-7.23,0-10.85,4.55t-3.61,13.32v32.86q0,8.88,3.61,13.42t10.85,4.65q7.23,0,10.95-4.65t3.62-13.42V237.78h-18v-3.61H359.5v15.5q0,10.22-4.44,15.7a18.33,18.33,0,0,1-4.91,4q-3.25,2-8.83,2t-8.78-2a18.5,18.5,0,0,1-4.86-4q-4.44-5.47-4.44-15.7V216.81q0-10.12,4.44-15.6,4.65-6,13.64-6t13.74,6q4.44,5.47,4.44,15.6v4.86Zm-6.2,0v-4.86a22.73,22.73,0,0,0-.72-6.45,8.53,8.53,0,0,0-1.92-3.52,5.19,5.19,0,0,0-2.68-1.49,15.16,15.16,0,0,0-6.1,0,5.19,5.19,0,0,0-2.68,1.49,8.41,8.41,0,0,0-1.91,3.52,22.32,22.32,0,0,0-.73,6.45v32.86a21.58,21.58,0,0,0,.88,7,7.88,7.88,0,0,0,2.22,3.51,5.68,5.68,0,0,0,2.74,1.29,17.1,17.1,0,0,0,2.53.21,18.07,18.07,0,0,0,2.58-.21,5.37,5.37,0,0,0,2.74-1.29,8.11,8.11,0,0,0,2.17-3.51,21.58,21.58,0,0,0,.88-7v-5.79H337.91v-3.61h15.5v9.4c0,5.43-1,9.4-3.1,11.88q-2.79,3.72-9,3.71t-8.88-3.71c-2.07-2.48-3.1-6.45-3.1-11.88V216.81q0-8.06,3.1-11.77c1.92-2.48,4.89-3.72,8.88-3.72s7,1.24,9,3.72,3.1,6.4,3.1,11.77v4.86Z" transform="translate(-49.81 -195.12)"/><path class="cls-1" d="M371.08,232.41a20.34,20.34,0,0,1-6.2-15.28,28.71,28.71,0,0,1,1.3-8.89,19.57,19.57,0,0,1,3.72-6.87,17.32,17.32,0,0,1,5.78-4.44,16.9,16.9,0,0,1,7.38-1.6q5.58,0,8.84,2a18.49,18.49,0,0,1,4.91,4q4.44,5.69,4.44,15.81V222h-3.72v-4.85c0-6.07-1.21-10.54-3.62-13.44q-3.62-4.65-10.85-4.64a12.77,12.77,0,0,0-10.94,5.37q-3.63,4.85-3.62,12.71a17.16,17.16,0,0,0,1.5,7.53,17.39,17.39,0,0,0,3.62,5.12,18.06,18.06,0,0,0,4.39,3.15c1.51.76,2.75,1.34,3.71,1.76l1.76.82c.89.35,2,.83,3.3,1.45a15.43,15.43,0,0,1,3.83,2.63,15.15,15.15,0,0,1,3.2,4.34,14.19,14.19,0,0,1,1.35,6.46c0,4.75-1.08,8.44-3.21,11.05a10.84,10.84,0,0,1-8.89,3.93q-6.09,0-9-3.62c-2.07-2.54-3.1-6.51-3.1-11.88V245h3.62v4.85q0,6.72,2.37,9.61a6,6,0,0,0,1.86,1.5,8.91,8.91,0,0,0,4.23.77,7.5,7.5,0,0,0,4.45-1.19,8.12,8.12,0,0,0,2.53-2.89,10.91,10.91,0,0,0,1.14-3.72,28.61,28.61,0,0,0,.25-3.56,11.22,11.22,0,0,0-.82-4.55,10.21,10.21,0,0,0-2.17-3.15,13.66,13.66,0,0,0-3-2.17c-1.1-.58-2.2-1.11-3.3-1.6l-1.86-.83c-1.11-.48-2.5-1.15-4.19-2A21.06,21.06,0,0,1,371.08,232.41Zm23.76,2.79a19.71,19.71,0,0,1,6.41,15.19q0,8.78-4.34,14.56-5.07,6.51-13.85,6.51-9.07,0-13.73-5.89-4.45-5.46-4.45-15.7V245h3.62v4.85q0,8.89,3.62,13.43t10.94,4.55a14.65,14.65,0,0,0,6.21-1.29,11.73,11.73,0,0,0,4.64-3.88,16.29,16.29,0,0,0,2.69-5.42,24.18,24.18,0,0,0,.93-6.87A16.44,16.44,0,0,0,396,242.9a17.74,17.74,0,0,0-8-8.06c-1.48-.72-2.67-1.26-3.56-1.6l-1.65-.72c-1-.42-2.12-1-3.47-1.66a16.13,16.13,0,0,1-3.87-2.84,15.69,15.69,0,0,1-3.15-4.44,14.6,14.6,0,0,1-1.29-6.45,25.37,25.37,0,0,1,.62-5.48,15.63,15.63,0,0,1,2.06-5.06,11.78,11.78,0,0,1,3.78-3.72,10.38,10.38,0,0,1,5.62-1.45q6,0,9,3.72,3.1,3.93,3.11,12V222h-3.73v-4.85a21.45,21.45,0,0,0-.88-6.93,7.74,7.74,0,0,0-2.22-3.56,5.64,5.64,0,0,0-2.78-1.29,17.83,17.83,0,0,0-2.49-.21,6.83,6.83,0,0,0-4.65,1.45,9.64,9.64,0,0,0-2.52,3.46,13.37,13.37,0,0,0-1.09,4c-.14,1.34-.2,2.36-.2,3a11.55,11.55,0,0,0,.82,4.59,11,11,0,0,0,2.17,3.31,13.86,13.86,0,0,0,3.05,2.37,24.81,24.81,0,0,0,3.56,1.71l1.66.72c1,.41,2.28,1,4,1.81A19,19,0,0,1,394.84,235.2Z" transform="translate(-49.81 -195.12)"/><path class="cls-1" d="M424.78,199.05H404.43v-3.72h43.08v3.72H424.78Zm0,72.41h-3.72V205.14H404.43v-3.72h20.35Zm2.38-70h20.35v3.72H430.88v66.32h-3.72v-70Z" transform="translate(-49.81 -195.12)"/><path class="cls-1" d="M456.1,267.85H484v3.61H452.48V195.33H484v3.72H456.1v68.8ZM484,205.14H462.2v23.35H484v3.71H458.58V201.42H484Zm0,33.16H462.2v23.45H484v3.62H458.58V234.58H484Z" transform="translate(-49.81 -195.12)"/><path class="cls-1" d="M495.41,198.84h-2.17v72.42h-3.62V195.12h8.17l18.59,46.07V195.12h3.72v65Zm27.07-3.72h3.71v76.14h-8.26l-18.59-46.08v46.08h-3.62v-65l24.69,61.26h2.07Z" transform="translate(-49.81 -195.12)"/></svg>
