<?xml version="1.0" encoding="UTF-8"?><svg id="Layer_1" xmlns="http://www.w3.org/2000/svg" viewBox="0 0 91.62 125.64"><defs><style>.cls-1{fill:#fff;stroke-width:0px;}</style></defs><path class="cls-1" d="m86.85,57.78c-3.18,5.88-8.16,10.62-14.94,14.22-6.78,3.6-15.33,5.4-25.65,5.4h-21.06v48.24H0V0h46.26c9.72,0,18,1.68,24.84,5.04,6.84,3.36,11.97,7.98,15.39,13.86,3.42,5.88,5.13,12.54,5.13,19.98,0,6.72-1.59,13.02-4.77,18.9Zm-26.19-5.49c3.36-3.18,5.04-7.65,5.04-13.41,0-12.24-6.84-18.36-20.52-18.36h-19.98v36.54h19.98c6.96,0,12.12-1.59,15.48-4.77Z"/></svg>