<?xml version="1.0" encoding="UTF-8"?><svg id="Layer_1" xmlns="http://www.w3.org/2000/svg" viewBox="0 0 167.25 99.18"><defs><style>.cls-1{fill:#fff;stroke-width:0px;}</style></defs><path class="cls-1" d="m159.75,68.52h-4.16c-1.56-21.23-16.09-39.54-36.97-49.35h21.74c1.59,4.85,6.17,8.36,11.56,8.36,6.72,0,12.19-5.47,12.19-12.19s-5.46-12.19-12.19-12.19c-5.39,0-9.97,3.51-11.56,8.36h-41.41v-4.01c0-4.13-3.35-7.5-7.5-7.5h-15.66c-4.13,0-7.5,3.37-7.5,7.5v4.01H26.88c-1.59-4.85-6.17-8.36-11.56-8.36-6.72,0-12.19,5.47-12.19,12.19s5.47,12.19,12.19,12.19c5.39,0,9.97-3.51,11.56-8.36h21.75C27.74,28.98,13.21,47.29,11.65,68.52h-4.16c-4.13,0-7.49,3.37-7.49,7.5v15.66c0,4.15,3.35,7.5,7.49,7.5h15.68c4.13,0,7.5-3.35,7.5-7.5v-15.66c0-4.13-3.37-7.5-7.5-7.5h-3.84c2.01-23.27,22.24-42.43,48.97-47.84v2.48c0,4.13,3.37,7.5,7.5,7.5h15.66c4.15,0,7.5-3.37,7.5-7.5v-2.48c26.73,5.4,46.96,24.57,48.97,47.84h-3.84c-4.13,0-7.49,3.37-7.49,7.5v15.66c0,4.15,3.35,7.5,7.49,7.5h15.68c4.13,0,7.5-3.35,7.5-7.5v-15.66c0-4.13-3.37-7.5-7.5-7.5Zm-136.75,7.65v15.35H7.65v-15.35h15.35ZM91.3,23.01h-15.35V7.65h15.35v15.35Zm68.3,68.52h-15.35v-15.35h15.35v15.35Z"/></svg>