<?xml version="1.0" encoding="UTF-8"?><svg id="Layer_1" xmlns="http://www.w3.org/2000/svg" viewBox="0 0 154.3 154.3"><defs><style>.cls-1{fill:#fff;stroke-width:0px;}</style></defs><path class="cls-1" d="m142.69,0H11.6C5.21,0,0,5.21,0,11.6v131.09c0,6.4,5.21,11.61,11.6,11.61h131.09c6.4,0,11.6-5.21,11.6-11.61V11.6c0-6.4-5.21-11.6-11.6-11.6ZM10.4,11.6c0-.66.54-1.21,1.21-1.21h131.09c.66,0,1.21.54,1.21,1.21v82.9l-30.52-41-41.72,57.56-26.45-21.61L10.4,122.11V11.6Z"/><circle class="cls-1" cx="39.06" cy="38.44" r="10.14" transform="translate(-7.79 10) rotate(-13.28)"/></svg>