<?xml version="1.0" encoding="UTF-8"?><svg id="Layer_1" xmlns="http://www.w3.org/2000/svg" viewBox="0 0 159.96 164.03"><defs><style>.cls-1{fill:#fff;stroke-width:0px;}</style></defs><path class="cls-1" d="m17.57,164.03c-2.91,0-5.78-.62-8.33-1.89C3.3,159.2-.06,153.42,0,146.28c.06-6.88,3.61-13.92,9.73-19.3,5.05-4.44,11.13-7.31,16.49-9.84,8.21-3.87,16.57-8.03,24.66-12.05.83-.41,1.66-.82,2.48-1.23,2.58-6.12,4.99-12.37,7.41-18.71l.25-.66c2.67-7,5.37-14.09,7.78-21.23-.99-1.42-1.99-2.93-3.03-4.53-7-10.83-14.54-23.5-15.41-36.98-.49-7.63,2.05-13.86,7.15-17.54,4.65-3.36,11.19-4.89,16.65-3.89,4.34.79,7.85,3.03,10.13,6.48,3.74,5.65,3.89,12.63,3.5,19.32-.71,12.04-3.47,23.79-7.1,35.29.17.22.33.43.5.64,6.05,7.77,13.07,14.34,20.71,19.43,8.13-3.24,16.38-6.16,24.76-8.6,6.61-1.92,13.68-3.4,20.68-1.18,8.1,2.56,14.84,11.44,11.96,20.56-1.85,5.84-7.68,10.22-15.61,11.72-12.05,2.27-24.73-2.2-33.22-5.76-3.26-1.37-6.45-2.95-9.57-4.75-13.31,5.54-26.39,11.89-39.23,18.26-2.16,4.96-4.46,9.85-6.98,14.65-3.61,6.89-7.18,12.77-10.92,17.95l-1.23,1.71c-3.27,4.58-6.97,9.78-11.82,13.53-3.83,2.96-8.55,4.5-13.15,4.5Zm28.67-44.69c-5.13,2.53-10.3,5.05-15.44,7.48-4.95,2.34-10.07,4.75-13.99,8.2-3.84,3.37-6.06,7.51-6.09,11.35-.03,3,1.08,5.08,3.28,6.17,2.95,1.47,7.13.85,10.17-1.5,3.6-2.78,6.67-7.09,9.65-11.27l1.26-1.76c3.44-4.77,6.75-10.22,10.12-16.66.35-.67.7-1.35,1.04-2.02Zm24.55-30.39h0c-.99,2.61-1.99,5.21-3,7.79,7.42-3.6,14.92-7.13,22.52-10.45-4.87-3.8-9.45-8.14-13.68-12.96-1.81,5.03-3.71,10.02-5.6,14.97l-.25.66Zm43.53-.77c.09.04.19.08.29.12,7.22,3.03,17.88,6.85,27.09,5.11,3.17-.6,6.67-2.19,7.38-4.41.9-2.84-1.94-6.15-4.97-7.11-4.27-1.35-9.47-.19-14.45,1.25-5.14,1.5-10.25,3.19-15.33,5.04ZM70.66,10.71c-2.35,0-4.99.81-6.88,2.17-2.57,1.85-2.9,5.46-2.73,8.17.63,9.81,6.15,19.9,11.82,28.88,2.18-8.12,3.73-16.28,4.22-24.46.27-4.61.28-9.73-1.73-12.77-.24-.36-.97-1.46-3.11-1.85-.5-.09-1.03-.14-1.58-.14Z"/></svg>