<?xml version="1.0" encoding="UTF-8"?><svg id="Layer_1" xmlns="http://www.w3.org/2000/svg" viewBox="0 0 67.4 187.55"><defs><style>.cls-1{fill:#fff;stroke-width:0px;}</style></defs><rect class="cls-1" y="22.35" width="33.7" height="22.35"/><rect class="cls-1" x="33.7" y="44.7" width="33.7" height="22.35"/><rect class="cls-1" x="33.7" width="33.7" height="22.35"/><rect class="cls-1" y="67.05" width="33.7" height="22.35"/><rect class="cls-1" x="33.7" y="89.4" width="33.7" height="22.35"/><path class="cls-1" d="m57.34,180.76l-10.08-54.17c-.51-2.72-2.88-4.69-5.65-4.69h-17.16c-2.77,0-5.14,1.97-5.65,4.69l-10.08,54.17c-.66,3.53,2.05,6.79,5.65,6.79h37.31c3.59,0,6.3-3.26,5.65-6.79Zm-15.86,1.83h-16.89c-2.68,0-4.85-2.17-4.85-4.85s2.17-4.85,4.85-4.85h16.89c2.68,0,4.85,2.17,4.85,4.85s-2.17,4.85-4.85,4.85Z"/></svg>