<?xml version="1.0" encoding="UTF-8"?><svg id="Layer_1" xmlns="http://www.w3.org/2000/svg" viewBox="0 0 131.29 123.75"><defs><style>.cls-1{fill:#fff;stroke-width:0px;}</style></defs><path class="cls-1" d="m131.23,88.88c0-.12.03-.22.03-.34V7.65c0-2.23-.97-4.35-2.67-5.81-1.69-1.45-3.93-2.1-6.14-1.76L43.78,12.1c-3.74.57-6.5,3.79-6.5,7.57v67.13c-4.55-.81-9.8-.62-15.3.74-6.26,1.55-11.91,4.45-15.87,8.19-4.96,4.64-7.04,10.36-5.73,15.69,1.9,7.72,10.1,12.32,20.57,12.32,3.06,0,6.32-.4,9.66-1.22,13.18-3.25,22-11.77,22-20.65,0-.32-.04-.65-.06-.97,0-.12.03-.23.03-.34v-60.29l63.37-9.8v44.32c-4.55-.81-9.8-.62-15.3.74-6.26,1.55-11.91,4.45-15.87,8.19-4.96,4.64-7.04,10.36-5.73,15.69,1.9,7.72,10.1,12.32,20.57,12.32,3.06,0,6.32-.4,9.66-1.22,13.18-3.25,22-11.77,22-20.65,0-.32-.04-.65-.06-.97Z"/></svg>